<svg width="80" height="22" viewBox="0 0 80 22" fill="none" xmlns="http://www.w3.org/2000/svg">
<path d="M-1.22041e-05 8.67993C-1.22041e-05 7.3066 0.306654 6.07993 0.919988 4.99993C1.54665 3.9066 2.39332 3.05993 3.45999 2.45993C4.53999 1.8466 5.74665 1.53993 7.07999 1.53993C8.63999 1.53993 10.0067 1.93993 11.18 2.73993C12.3533 3.53993 13.1733 4.6466 13.64 6.05993H10.42C10.1 5.39326 9.64665 4.89326 9.05999 4.55993C8.48665 4.2266 7.81999 4.05993 7.05999 4.05993C6.24665 4.05993 5.51999 4.25326 4.87999 4.63993C4.25332 5.01326 3.75999 5.5466 3.39999 6.23993C3.05332 6.93326 2.87999 7.7466 2.87999 8.67993C2.87999 9.59993 3.05332 10.4133 3.39999 11.1199C3.75999 11.8133 4.25332 12.3533 4.87999 12.7399C5.51999 13.1133 6.24665 13.2999 7.05999 13.2999C7.81999 13.2999 8.48665 13.1333 9.05999 12.7999C9.64665 12.4533 10.1 11.9466 10.42 11.2799H13.64C13.1733 12.7066 12.3533 13.8199 11.18 14.6199C10.02 15.4066 8.65332 15.7999 7.07999 15.7999C5.74665 15.7999 4.53999 15.4999 3.45999 14.8999C2.39332 14.2866 1.54665 13.4399 0.919988 12.3599C0.306654 11.2799 -1.22041e-05 10.0533 -1.22041e-05 8.67993ZM18.8316 6.31993C19.1916 5.73326 19.6582 5.27326 20.2316 4.93993C20.8182 4.6066 21.4849 4.43993 22.2316 4.43993V7.37993H21.4916C20.6116 7.37993 19.9449 7.5866 19.4916 7.99993C19.0516 8.41326 18.8316 9.13326 18.8316 10.1599V15.6799H16.0316V4.59993H18.8316V6.31993ZM23.3975 10.0999C23.3975 8.97993 23.6175 7.9866 24.0575 7.11993C24.5108 6.25326 25.1175 5.5866 25.8775 5.11993C26.6508 4.65326 27.5108 4.41993 28.4575 4.41993C29.2842 4.41993 30.0042 4.5866 30.6175 4.91993C31.2442 5.25326 31.7442 5.67326 32.1175 6.17993V4.59993H34.9375V15.6799H32.1175V14.0599C31.7575 14.5799 31.2575 15.0133 30.6175 15.3599C29.9908 15.6933 29.2642 15.8599 28.4375 15.8599C27.5042 15.8599 26.6508 15.6199 25.8775 15.1399C25.1175 14.6599 24.5108 13.9866 24.0575 13.1199C23.6175 12.2399 23.3975 11.2333 23.3975 10.0999ZM32.1175 10.1399C32.1175 9.45993 31.9842 8.87993 31.7175 8.39993C31.4508 7.9066 31.0908 7.53326 30.6375 7.27993C30.1842 7.01326 29.6975 6.87993 29.1775 6.87993C28.6575 6.87993 28.1775 7.0066 27.7375 7.25993C27.2975 7.51326 26.9375 7.8866 26.6575 8.37993C26.3908 8.85993 26.2575 9.43326 26.2575 10.0999C26.2575 10.7666 26.3908 11.3533 26.6575 11.8599C26.9375 12.3533 27.2975 12.7333 27.7375 12.9999C28.1908 13.2666 28.6708 13.3999 29.1775 13.3999C29.6975 13.3999 30.1842 13.2733 30.6375 13.0199C31.0908 12.7533 31.4508 12.3799 31.7175 11.8999C31.9842 11.4066 32.1175 10.8199 32.1175 10.1399ZM42.2922 13.0999L45.0922 4.59993H48.0722L43.9722 15.6799H40.5722L36.4922 4.59993H39.4922L42.2922 13.0999ZM51.0648 3.27993C50.5715 3.27993 50.1582 3.1266 49.8248 2.81993C49.5048 2.49993 49.3448 2.1066 49.3448 1.63993C49.3448 1.17326 49.5048 0.786597 49.8248 0.479931C50.1582 0.159931 50.5715 -6.91414e-05 51.0648 -6.91414e-05C51.5582 -6.91414e-05 51.9648 0.159931 52.2848 0.479931C52.6182 0.786597 52.7848 1.17326 52.7848 1.63993C52.7848 2.1066 52.6182 2.49993 52.2848 2.81993C51.9648 3.1266 51.5582 3.27993 51.0648 3.27993ZM52.4448 4.59993V15.6799H49.6448V4.59993H52.4448ZM61.3512 4.43993C62.6712 4.43993 63.7379 4.85993 64.5512 5.69993C65.3646 6.5266 65.7712 7.6866 65.7712 9.17993V15.6799H62.9712V9.55993C62.9712 8.67993 62.7512 8.0066 62.3112 7.53993C61.8712 7.05993 61.2712 6.81993 60.5112 6.81993C59.7379 6.81993 59.1246 7.05993 58.6712 7.53993C58.2312 8.0066 58.0112 8.67993 58.0112 9.55993V15.6799H55.2112V4.59993H58.0112V5.97993C58.3846 5.49993 58.8579 5.1266 59.4312 4.85993C60.0179 4.57993 60.6579 4.43993 61.3512 4.43993ZM72.7739 4.41993C73.6006 4.41993 74.3272 4.5866 74.9539 4.91993C75.5806 5.23993 76.0739 5.65993 76.4339 6.17993V4.59993H79.2539V15.7599C79.2539 16.7866 79.0472 17.6999 78.6339 18.4999C78.2206 19.3133 77.6006 19.9533 76.7739 20.4199C75.9472 20.8999 74.9472 21.1399 73.7739 21.1399C72.2006 21.1399 70.9072 20.7733 69.8939 20.0399C68.8939 19.3066 68.3272 18.3066 68.1939 17.0399H70.9739C71.1206 17.5466 71.4339 17.9466 71.9139 18.2399C72.4072 18.5466 73.0006 18.6999 73.6939 18.6999C74.5072 18.6999 75.1672 18.4533 75.6739 17.9599C76.1806 17.4799 76.4339 16.7466 76.4339 15.7599V14.0399C76.0739 14.5599 75.5739 14.9933 74.9339 15.3399C74.3072 15.6866 73.5872 15.8599 72.7739 15.8599C71.8406 15.8599 70.9872 15.6199 70.2139 15.1399C69.4406 14.6599 68.8272 13.9866 68.3739 13.1199C67.9339 12.2399 67.7139 11.2333 67.7139 10.0999C67.7139 8.97993 67.9339 7.9866 68.3739 7.11993C68.8272 6.25326 69.4339 5.5866 70.1939 5.11993C70.9672 4.65326 71.8272 4.41993 72.7739 4.41993ZM76.4339 10.1399C76.4339 9.45993 76.3006 8.87993 76.0339 8.39993C75.7672 7.9066 75.4072 7.53326 74.9539 7.27993C74.5006 7.01326 74.0139 6.87993 73.4939 6.87993C72.9739 6.87993 72.4939 7.0066 72.0539 7.25993C71.6139 7.51326 71.2539 7.8866 70.9739 8.37993C70.7072 8.85993 70.5739 9.43326 70.5739 10.0999C70.5739 10.7666 70.7072 11.3533 70.9739 11.8599C71.2539 12.3533 71.6139 12.7333 72.0539 12.9999C72.5072 13.2666 72.9872 13.3999 73.4939 13.3999C74.0139 13.3999 74.5006 13.2733 74.9539 13.0199C75.4072 12.7533 75.7672 12.3799 76.0339 11.8999C76.3006 11.4066 76.4339 10.8199 76.4339 10.1399Z" fill="#2B2B2B"/>
</svg>
