<svg width="18" height="18" viewBox="0 0 18 18" fill="none" xmlns="http://www.w3.org/2000/svg">
<path d="M9 10.0725C9.3073 10.0725 9.61158 10.0119 9.89548 9.89433C10.1794 9.77674 10.4373 9.60438 10.6546 9.38709C10.8719 9.1698 11.0443 8.91184 11.1619 8.62794C11.2795 8.34403 11.34 8.03975 11.34 7.73246C11.34 7.42516 11.2795 7.12088 11.1619 6.83698C11.0443 6.55308 10.8719 6.29511 10.6546 6.07783C10.4373 5.86054 10.1794 5.68817 9.89548 5.57058C9.61158 5.45298 9.3073 5.39246 9 5.39246C8.3794 5.39246 7.78421 5.63899 7.34537 6.07783C6.90654 6.51666 6.66 7.11185 6.66 7.73246C6.66 8.35306 6.90654 8.94825 7.34537 9.38709C7.78421 9.82592 8.3794 10.0725 9 10.0725Z" stroke="#2B2B2B" stroke-width="1.5"/>
<path d="M2.715 6.3675C4.1925 -0.127498 13.815 -0.119998 15.285 6.375C16.1475 10.185 13.7775 13.41 11.7 15.405C10.9741 16.1052 10.0048 16.4964 8.99625 16.4964C7.98768 16.4964 7.01844 16.1052 6.2925 15.405C4.2225 13.41 1.8525 10.1775 2.715 6.3675Z" stroke="#2B2B2B" stroke-width="1.5"/>
</svg>
