<svg width="18" height="18" viewBox="0 0 18 18" fill="none" xmlns="http://www.w3.org/2000/svg">
<path d="M7.8675 1.67254L4.125 3.07504C3.2625 3.39754 2.5575 4.41754 2.5575 5.34004V10.9125C2.5575 11.7975 3.14249 12.96 3.85499 13.4925L7.07999 15.9C8.13749 16.695 9.8775 16.695 10.935 15.9L14.16 13.4925C14.8725 12.96 15.4575 11.7975 15.4575 10.9125V5.34004C15.4575 4.41754 14.7525 3.39754 13.89 3.07504L10.1475 1.67254C9.51 1.44004 8.49 1.44004 7.8675 1.67254Z" stroke="#2B2B2B" stroke-width="1.5" stroke-linecap="round" stroke-linejoin="round"/>
<path d="M9 8.19005H8.9025C8.1975 8.16755 7.635 7.58255 7.635 6.87005C7.635 6.14255 8.2275 5.55005 8.955 5.55005C9.6825 5.55005 10.275 6.14255 10.275 6.87005C10.2675 7.59005 9.705 8.16755 9 8.19005ZM7.5075 10.29C6.7875 10.77 6.7875 11.5575 7.5075 12.0375C8.325 12.585 9.6675 12.585 10.485 12.0375C11.205 11.5575 11.205 10.77 10.485 10.29C9.675 9.74255 8.3325 9.74255 7.5075 10.29Z" stroke="#2B2B2B" stroke-width="1.5" stroke-linecap="round" stroke-linejoin="round"/>
</svg>
